<svg width="61" height="56" viewBox="0 0 61 56" fill="none" xmlns="http://www.w3.org/2000/svg">
<path d="M53.5 41C53.5 41 53.9138 44.8625 55.5257 46.4743C57.1375 48.0862 61 48.5 61 48.5C61 48.5 57.1375 48.9138 55.5257 50.5257C53.9138 52.1375 53.5 56 53.5 56C53.5 56 53.0862 52.1375 51.4743 50.5257C49.8625 48.9138 46 48.5 46 48.5C46 48.5 49.8625 48.0862 51.4743 46.4743C53.0862 44.8625 53.5 41 53.5 41Z" fill="#FCDD00"/>
<path d="M7.5 0C7.5 0 7.91382 3.86245 9.52568 5.47432C11.1375 7.08619 15 7.5 15 7.5C15 7.5 11.1375 7.91382 9.52568 9.52568C7.91382 11.1375 7.5 15 7.5 15C7.5 15 7.08619 11.1375 5.47432 9.52568C3.86245 7.91382 0 7.5 0 7.5C0 7.5 3.86245 7.08619 5.47432 5.47432C7.08619 3.86245 7.5 0 7.5 0Z" fill="#FCDD00"/>
<path d="M47.0008 13.9344L31.575 9.22867C31.0772 9.07703 30.5472 9 30.0001 9C29.4528 9 28.9228 9.07703 28.425 9.22867L12.9989 13.9344C12.7288 14.0175 12.5545 14.2085 12.5545 14.4227C12.5545 14.6367 12.7288 14.8278 12.9991 14.9109L20.1398 17.0891V23.1225C20.1416 26.242 21.2021 29.2384 23.126 31.5585C24.0505 32.6721 25.1146 33.5565 26.2888 34.1861C27.5341 34.8552 28.8254 35.1942 30.1266 35.1942C31.427 35.1942 32.7184 34.8552 33.9645 34.1861C35.7299 33.2374 37.2489 31.7137 38.3572 29.7806C39.5055 27.7741 40.1127 25.4716 40.1133 23.1225V17.012L43.648 15.9336V20.9486C43.1636 21.0098 42.788 21.4248 42.788 21.9252C42.788 22.3606 43.0731 22.738 43.4812 22.8635L42.7315 27.81C42.7131 27.9331 42.7489 28.0575 42.8301 28.1527C42.9115 28.2467 43.0296 28.3013 43.1541 28.3013H45.988C46.1123 28.3013 46.2305 28.2466 46.312 28.152C46.393 28.058 46.4289 27.933 46.4106 27.8094L45.6609 22.8635C46.069 22.738 46.3541 22.3607 46.3541 21.9252C46.3541 21.4248 45.9783 21.0098 45.4938 20.9486V15.3706L47.001 14.9109C47.2711 14.8277 47.4456 14.6361 47.4456 14.4226C47.4455 14.2091 47.271 14.0174 47.0008 13.9344ZM30.1266 32.2712C29.313 32.2712 28.4864 32.0491 27.6697 31.6106C26.4045 30.9349 25.255 29.7697 24.4323 28.3285C24.0531 27.6662 23.7452 26.9455 23.516 26.1844C28.272 25.3425 31.2121 22.3266 32.8706 19.8586C33.6708 21.4817 35.0316 23.5112 37.1071 24.4405C36.8633 26.3923 36.0737 28.2539 34.878 29.6914C34.2049 30.5042 33.4114 31.1678 32.5831 31.6112C31.7661 32.0491 30.9395 32.2712 30.1266 32.2712Z" fill="url(#paint0_radial_3423_3582)"/>
<path d="M39.202 33.5492L39.1236 33.5001L30.4882 41.0996L21.8527 33.5L21.7742 33.5491C18.8951 35.3488 15.8352 40.2407 15.8352 45.7621V45.8367L15.9012 45.8719C15.9602 45.9035 21.9084 49 30.4882 49C39.0678 49 45.0162 45.9035 45.0751 45.872L45.1412 45.8369V45.7623C45.1412 40.2407 42.0812 35.3488 39.202 33.5492Z" fill="url(#paint1_radial_3423_3582)"/>
<defs>
<radialGradient id="paint0_radial_3423_3582" cx="0" cy="0" r="1" gradientUnits="userSpaceOnUse" gradientTransform="translate(30.4889 41.25) rotate(90) scale(7.75 14.653)">
<stop stop-color="#1F1527"/>
</radialGradient>
<radialGradient id="paint1_radial_3423_3582" cx="0" cy="0" r="1" gradientUnits="userSpaceOnUse" gradientTransform="translate(30.4889 41.25) rotate(90) scale(7.75 14.653)">
<stop stop-color="#1F1527"/>
</radialGradient>
</defs>
</svg>
